<?xml version="1.0" encoding="UTF-8" standalone="no"?>
<!-- No Smoking Sign by Gregory Maxwell [gmaxwell@gmail.com]. Copyright 2005. Licensed under the GFDL 1.2 only. -->
<svg
   xmlns:svg="http://www.w3.org/2000/svg"
   xmlns="http://www.w3.org/2000/svg"
   version="1.0"
   x="0.0"
   y="0.0"
   width="800.0"
   height="800.0"
   id="no_smoking_sign">
  <g
     transform="translate(-112.0000,-160.0000)"
     id="mainsign">
    <path
       d="M 512.01563,226.07813 C 354.18488,226.07813 226.07812,354.15362 226.07812,511.98437 C 226.07812,669.81511 354.18488,797.92184 512.01563,797.92187 C 669.84637,797.92187 797.92188,669.81511 797.92188,511.98437 C 797.92188,354.15362 669.84637,226.07813 512.01563,226.07813 z "
       style="fill:#ffffff;fill-opacity:1.0;fill-rule:nonzero;stroke:none;stroke-width:1.0pt;stroke-linecap:butt;stroke-linejoin:miter;stroke-opacity:0.47647056"
       id="background" />
    <path
       d="M 698.95770,466.40394 C 692.74193,460.09609 687.21049,452.13591 678.67622,448.23609 C 656.92905,436.68405 631.57176,439.32965 607.99067,435.75229 C 584.65547,431.26828 566.24613,412.73968 557.70730,391.12880 C 551.22265,376.53326 549.91191,360.26733 543.80479,345.58724 C 540.08198,337.58539 534.32495,330.30745 525.75302,327.24200 C 518.73918,323.71413 511.74832,320.26190 505.15549,310.92229 C 514.34999,311.22146 524.15255,315.19893 532.66314,313.44906 C 544.27967,313.60487 554.69236,306.08836 566.44754,308.06831 C 580.75556,307.49899 592.47950,317.22857 601.68626,327.07177 C 617.55659,340.79546 639.05284,344.05840 658.40355,350.29724 C 673.00401,355.06738 687.13958,362.25624 697.38011,373.98908 C 711.14127,389.09346 715.98757,409.94902 716.03780,429.91488 C 716.29676,441.47311 716.34213,453.46955 712.11610,464.39893 C 709.31540,468.10678 703.01488,466.28767 698.95770,466.40394 z M 690.83581,437.87132 C 682.04904,421.50919 669.06627,404.94321 650.03269,400.62345 C 637.39755,396.49955 622.75467,399.64830 611.52296,391.18832 C 600.19654,382.14728 593.42425,368.83262 583.59932,358.32927 C 575.85334,349.66073 568.22918,339.95063 557.48361,334.96569 C 562.48566,342.63467 567.03460,350.69695 568.72455,359.83571 C 574.29282,378.01047 576.97937,399.48115 593.29236,411.66119 C 607.06891,421.51811 625.04009,420.67542 641.19637,421.81043 C 658.68565,421.43007 675.50332,428.64924 688.58090,440.00289 C 694.04262,444.44634 694.08359,444.14942 690.83581,437.87132 z M 697.93451,414.96739 C 694.73723,395.07970 681.28760,376.50999 662.00490,369.61155 C 645.07612,361.67865 625.22399,363.53080 608.82348,354.07155 C 602.13330,351.25866 595.00607,345.73995 589.58311,342.98709 C 601.80216,355.19021 611.05694,372.55065 629.06385,376.98426 C 642.27783,380.96955 656.31204,382.62195 668.40136,389.76939 C 678.90220,395.27611 686.92721,404.88538 693.08293,414.82625 C 695.25719,418.39974 699.50526,433.19481 698.47428,420.61960 C 698.37332,418.72935 698.20671,416.84107 697.93451,414.96739 z "
       style="fill:#000000"
       id="smoke" />
    <g
       id="Cig">
      <rect
         width="389.29608"
         height="60.910271"
         x="281.70905"
         y="471.92023"
         style="fill:#000000;fill-opacity:1.0;stroke:#ffffff;stroke-width:3.0;stroke-linecap:butt;stroke-linejoin:miter;stroke-miterlimit:4.0;stroke-dasharray:none;stroke-opacity:1.0"
         id="body" />
      <rect
         width="16.600241"
         height="60.910271"
         x="677.32361"
         y="471.92023"
         style="fill:#000000;fill-opacity:1.0;stroke:none"
         id="tip1" />
      <rect
         width="14.336570"
         height="60.910271"
         x="699.96033"
         y="471.92023"
         style="fill:#000000;fill-opacity:1.0;stroke:none"
         id="tip2" />
      <rect
         width="16.222960"
         height="60.910271"
         x="720.33331"
         y="471.92023"
         style="fill:#000000;fill-opacity:1.0;stroke:none"
         id="tip3" />
    </g>
    <path
       d="M 512.01562,226.07813 C 354.18487,226.07813 226.07812,354.15363 226.07812,511.98438 C 226.07812,669.81512 354.18487,797.92185 512.01562,797.92188 C 669.84636,797.92188 797.92188,669.81512 797.92188,511.98438 C 797.92188,354.15363 669.84636,226.07813 512.01562,226.07813 z M 512.01562,259.89063 C 651.17814,259.89062 764.10938,372.82185 764.10938,511.98438 C 764.10937,574.26194 741.44768,631.25836 703.98438,675.26563 L 335.01562,332.57813 C 380.55147,287.66357 443.05340,259.89063 512.01562,259.89063 z M 309.79688,361.48438 L 676.98438,702.48438 C 632.75452,740.83873 575.10951,764.10938 512.01562,764.10938 C 372.85309,764.10939 259.89062,651.14690 259.89062,511.98438 C 259.89062,455.58616 278.46546,403.49504 309.79688,361.48438 z "
       style="fill:#ff0000;fill-opacity:1.0;fill-rule:nonzero;stroke:none;stroke-width:1.0pt;stroke-linecap:butt;stroke-linejoin:miter;stroke-opacity:0.47647056"
       id="strikecircle" />
  </g>
  <text
     x="397.98392"
     y="760.40002"
     style="font-size:110.0px;font-style:normal;font-variant:normal;font-weight:bold;font-stretch:normal;text-align:center;line-height:125.0%;writing-mode:lr-tb;text-anchor:middle;font-family:Sans"
     id="signtext"
     xml:space="preserve"><tspan
       x="397.98392"
       y="760.40002"
       id="boldline">NO SMOKING</tspan></text>
</svg>
